<?xml version="1.0" encoding="UTF-8"?><svg id="Layer_2" xmlns="http://www.w3.org/2000/svg" xmlns:xlink="http://www.w3.org/1999/xlink" viewBox="0 0 381.4 360"><defs><style>.cls-1{fill:url(#Dissolvenza_in_nero_1-2);}.cls-2{fill:url(#Dissolvenza_in_nero_1-3);}.cls-3{fill:url(#Dissolvenza_in_nero_1);}.cls-4{fill:url(#linear-gradient);}.cls-5{fill:url(#linear-gradient-3);}.cls-6{fill:url(#linear-gradient-4);}.cls-7{fill:url(#linear-gradient-2);}</style><linearGradient id="linear-gradient" x1="192.5" y1="377.6" x2="192.5" y2="293.6" gradientUnits="userSpaceOnUse"><stop offset="0" stop-color="#00308c"/><stop offset="0" stop-color="#032c7d" stop-opacity=".9"/><stop offset=".2" stop-color="#0a265f" stop-opacity=".6"/><stop offset=".3" stop-color="#0f2046" stop-opacity=".4"/><stop offset=".5" stop-color="#141c33" stop-opacity=".2"/><stop offset=".6" stop-color="#171925" stop-opacity="0"/><stop offset=".8" stop-color="#19171d" stop-opacity="0"/><stop offset="1" stop-color="#1a171b" stop-opacity="0"/></linearGradient><linearGradient id="linear-gradient-2" x1="241.6" y1="254.3" x2="-6.9" y2="254.3" gradientUnits="userSpaceOnUse"><stop offset="0" stop-color="#2145ad"/><stop offset="1" stop-color="#008cd0"/></linearGradient><linearGradient id="Dissolvenza_in_nero_1" x1="241.6" y1="254.3" x2="-6.9" y2="254.3" gradientUnits="userSpaceOnUse"><stop offset="0" stop-color="#1a171b"/><stop offset=".3" stop-color="#1a171b" stop-opacity=".5"/><stop offset=".6" stop-color="#1a171b" stop-opacity=".1"/><stop offset="1" stop-color="#1a171b" stop-opacity="0"/></linearGradient><linearGradient id="linear-gradient-3" x1="105.4" y1="32.5" x2="417.4" y2="344.5" xlink:href="#linear-gradient-2"/><linearGradient id="Dissolvenza_in_nero_1-2" x1="139.4" y1="115.5" x2="290" y2="201.1" xlink:href="#Dissolvenza_in_nero_1"/><linearGradient id="linear-gradient-4" x1="0" y1="127.6" x2="234.9" y2="127.6" xlink:href="#linear-gradient-2"/><linearGradient id="Dissolvenza_in_nero_1-3" x1="154.1" y1="207.3" x2="104" y2="98.4" xlink:href="#Dissolvenza_in_nero_1"/></defs><g id="Livello_1"><path class="cls-4" d="M293.9,339l-55.4-13.3h-108L3.5,350l47.9,7.3,180.4-7.5,6,1.4,36.6,8.7h107l-54.6-13.1-33-7.9Zm-155,5.9l39.8-7.7,22.3,5.3-62.1,2.4Z"/><polygon class="cls-7" points="135.4 201.3 0 255.3 47.9 332 228.3 253.5 197.5 176.5 135.4 201.3"/><polygon class="cls-3" points="135.4 201.3 0 255.3 47.9 332 228.3 253.5 197.5 176.5 135.4 201.3"/><polygon class="cls-5" points="323.3 222.5 290.4 139.5 234.9 0 126.9 0 197.5 176.5 234.3 268.4 270.9 360 377.9 360 323.3 222.5"/><polygon class="cls-1" points="323.3 222.5 290.4 139.5 234.9 0 126.9 0 197.5 176.5 234.3 268.4 270.9 360 377.9 360 323.3 222.5"/><polygon class="cls-6" points="234.9 0 126.9 0 0 255.3 135.4 201.3 234.9 0"/><polygon class="cls-2" points="234.9 0 126.9 0 0 255.3 135.4 201.3 234.9 0"/></g></svg>